<?xml version="1.0" encoding="UTF-8"?>
<svg xmlns="http://www.w3.org/2000/svg"
     width="258.64mm"
     height="94.36mm"
     viewBox="0 0 733.16 267.46">
    
    <defs>
        <style>
            .cls-1 { fill: #161b22; }
            .cls-2 {
            fill: #1f2630;
            stroke: #58a6ff;
            stroke-width: 0.6px;
            stroke-miterlimit: 10;
            }
        </style>
    </defs>
    
    <!-- CARCASA -->
    <g id="Shape">
        <path class="cls-1" d="M.69,160.19l27.77-4.9V14.61c0-1.57,1.27-2.83,2.83-2.83h125.46V.84c0-.46,.38-.84,.84-.84h50.76c.46,0,.84,.38,.84,.84V11.78h135.72c1.57,0,2.83,1.27,2.83,2.83V215.66l15.12,8.73c.4,.23,.54,.74,.31,1.14l-23.97,41.51c-.23,.4-.74,.54-1.14,.31-2.77-1.6-13.03-7.52-21.72-12.54-11.22-6.48-22.44-12.96-47.42-19.65s-37.59-6.69-50.19-6.69c-10.77,0-21.38,0-24.37,0-.46,0-.84-.38-.84-.84v-3.42H31.3c-1.57,0-2.83-1.27-2.83-2.83v-15.72l-19.16,3.38c-.46,.08-.89-.22-.97-.68L.01,161.16c-.08-.46,.22-.89,.68-.97Z"/>
        <path class="cls-1" d="M732.46,160.19l-27.77-4.9V14.61c0-1.57-1.27-2.83-2.83-2.83h-125.46V.84c0-.46-.38-.84-.84-.84h-50.76c-.46,0-.84,.38-.84,.84V11.78h-135.72c-1.57,0-2.83,1.27-2.83,2.83V215.66l-15.12,8.73c-.4,.23-.54,.74-.31,1.14l23.97,41.51c.23,.4,.74,.54,1.14,.31-2.77-1.6-13.03-7.52-21.72-12.54-11.22-6.48-22.44-12.96-47.42-19.65s-37.59-6.69-50.19-6.69c-10.77,0-21.38,0-24.37,0-.46,0-.84-.38-.84-.84v-3.42h162.23c1.57,0,2.83-1.27,2.83-2.83v-15.72l19.16,3.38c.46,.08,.89-.22,.97-.68l8.32-47.2c.08-.46,.22-.89,.68-.97Z"/>
    </g>
    
    <!-- TECLAS -->
    <g id="Keys">
        
        <!-- FILA 1 -->
        <rect id="k00" class="cls-2" x="42.36"  y="74.32" width="49.61" height="46.77" rx="2.61" transform="rotate(-10 67.2 97.7)"/>
        <rect id="k01" class="cls-2" x="99.69"  y="30.30" width="49.61" height="46.77" rx="2.61" transform="rotate(-4 124.5 53.7)"/>
        <rect id="k02" class="cls-2" x="157.96" y="1.41"  width="49.61" height="46.77" rx="2.61"/>
        <rect id="k03" class="cls-2" x="208.96" y="25.42" width="49.61" height="46.77" rx="2.61"/>
        <rect id="k04" class="cls-2" x="259.97" y="33.02" width="49.61" height="46.77" rx="2.61"/>
        
        <rect id="k05" class="cls-2" x="423.36" y="33.02" width="49.61" height="46.77" rx="2.61"/>
        <rect id="k06" class="cls-2" x="474.36" y="25.42" width="49.61" height="46.77" rx="2.61"/>
        <rect id="k07" class="cls-2" x="525.36" y="1.41"  width="49.61" height="46.77" rx="2.61"/>
        <rect id="k08" class="cls-2" x="585.05" y="28.89" width="46.77" height="49.61" rx="2.61" transform="rotate(-86 608.4 53.7)"/>
        <rect id="k09" class="cls-2" x="642.38" y="72.90" width="46.77" height="49.61" rx="2.61" transform="rotate(-80 665.8 97.7)"/>
        
        <!-- FILA 2 -->
        <rect id="k10" class="cls-2" x="50.66"  y="121.83" width="49.61" height="46.77" rx="2.61" transform="rotate(-10 75.5 145.2)"/>
        <rect id="k11" class="cls-2" x="103.09" y="78.41"  width="49.61" height="46.77" rx="2.61" transform="rotate(-4 127.9 101.8)"/>
        <rect id="k12" class="cls-2" x="157.96" y="49.51"  width="49.61" height="46.77" rx="2.61"/>
        <rect id="k13" class="cls-2" x="208.96" y="73.62"  width="49.61" height="46.77" rx="2.61"/>
        <rect id="k14" class="cls-2" x="259.97" y="81.22"  width="49.61" height="46.77" rx="2.61"/>
        
        <rect id="k15" class="cls-2" x="423.36" y="81.22" width="49.61" height="46.77" rx="2.61"/>
        <rect id="k16" class="cls-2" x="474.36" y="73.62" width="49.61" height="46.77" rx="2.61"/>
        <rect id="k17" class="cls-2" x="525.36" y="49.51" width="49.61" height="46.77" rx="2.61"/>
        <rect id="k18" class="cls-2" x="581.65" y="76.99" width="46.77" height="49.61" rx="2.61" transform="rotate(-86 605 101.8)"/>
        <rect id="k19" class="cls-2" x="634.08" y="120.41" width="46.77" height="49.61" rx="2.61" transform="rotate(-80 657.5 145.2)"/>
        
        <!-- FILA 3 -->
        <rect id="k20" class="cls-2" x="59.06"  y="169.23" width="49.61" height="46.77" rx="2.61" transform="rotate(-10 83.9 192.6)"/>
        <rect id="k21" class="cls-2" x="106.39" y="126.41" width="49.61" height="46.77" rx="2.61" transform="rotate(-4 131.2 149.8)"/>
        <rect id="k22" class="cls-2" x="157.96" y="97.71"  width="49.61" height="46.77" rx="2.61"/>
        <rect id="k23" class="cls-2" x="208.96" y="121.82" width="49.61" height="46.77" rx="2.61"/>
        <rect id="k24" class="cls-2" x="259.97" y="129.33" width="49.61" height="46.77" rx="2.61"/>
        
        <rect id="k25" class="cls-2" x="423.36" y="129.33" width="49.61" height="46.77" rx="2.61"/>
        <rect id="k26" class="cls-2" x="474.36" y="121.82" width="49.61" height="46.77" rx="2.61"/>
        <rect id="k27" class="cls-2" x="525.36" y="97.71"  width="49.61" height="46.77" rx="2.61"/>
        <rect id="k28" class="cls-2" x="578.35" y="124.99" width="46.77" height="49.61" rx="2.61" transform="rotate(-86 601.7 149.8)"/>
        <rect id="k29" class="cls-2" x="625.68" y="167.81" width="46.77" height="49.61" rx="2.61" transform="rotate(-80 649.1 192.6)"/>
        
        <!-- THUMBS -->
        <rect id="k30" class="cls-2" x="194.74" y="180.27" width="49.61" height="46.77" rx="2.61"/>
        <rect id="k31" class="cls-2" x="252.67" y="186.64" width="46.77" height="49.61" rx="2.61" transform="rotate(-75 276 211.4)"/>
        <rect id="k32" class="cls-2" x="304.89" y="208.37" width="46.77" height="49.61" rx="2.61" transform="rotate(-60 328.3 233.2)"/>
        <rect id="k33" class="cls-2" x="379.85" y="209.78" width="49.61" height="46.77" rx="2.61" transform="rotate(-30 404.6 233.2)"/>
        <rect id="k34" class="cls-2" x="432.07" y="188.06" width="49.61" height="46.77" rx="2.61" transform="rotate(-15 456.9 211.4)"/>
        <rect id="k35" class="cls-2" x="488.59" y="180.27" width="49.61" height="46.77" rx="2.61"/>
        <rect id="k36" class="cls-2" x="4.98"   y="156.81" width="49.61" height="46.77" rx="2.61" transform="rotate(-10 29.8 180.2)"/>
        <rect id="k37" class="cls-2" x="679.76" y="155.39" width="46.77" height="49.61" rx="2.61" transform="rotate(-80 703.1 180.2)"/>
        
    </g>
</svg>
